{"title":"Life.For.Sale.2011.DVDRip.XviD-FiCO","uid":7261470,"size":1461459639,"categoryP":"video","categoryS":"movies","magnet":"?xt=urn:btih:f4bb2f962e7eb762a61ec1a1bf7ef4374baba9ec&amp;dn=Life.For.Sale.2011.DVDRip.XviD-FiCO&amp;tr=udp%3A%2F%2Ftracker.openbittorrent.com%3A80&amp;tr=udp%3A%2F%2Fopen.demonii.com%3A1337&amp;tr=udp%3A%2F%2Ftracker.coppersurfer.tk%3A6969&amp;tr=udp%3A%2F%2Fexodus.desync.com%3A6969","seeders":0,"leechers":1,"uploader":"MisterNobody","files":4,"time":1336743928,"description":"CoaXCPH\n\nTeam FiCO Final Coalition 2k8 Presents:\n\nLife.For.Sale.2011.DVDRip.XviD-FiCO\n &lt;a href=&quot;\nhttp://www.imdb.com/title/tt1715827&quot; rel=&quot;nofollow&quot; target=&quot;_NEW&quot;&gt;\nhttp://www.imdb.com/title/tt1715827&lt;/a&gt;\nSubtitles: English\nDate: 2012.04\n\nDrama  Thriller\n\nStats\nGeneral\nFormat                                   : AVI\nFormat/Info                              : Audio Video Interleave\nFile size                                : 1.36 GiB\nDuration                                 : 1h 41mn\nOverall bit rate                         : 1 920 Kbps\nWriting application                      : VirtualDubMod 1.5.10.2 (build 2540/release\nWriting library                          : VirtualDubMod build 2540/release\n\nVideo\nID                                       : 0\nFormat                                   : MPEG-4 Visual\nFormat profile                           : Advanced SimpleL5\nFormat settings, BVOP                    : 2\nFormat settings, QPel                    : No\nFormat settings, GMC                     : No warppoints\nFormat settings, Matrix                  : Default (H.263\nMuxing mode                              : Packed bitstream\nCodec ID                                 : XVID\nCodec ID/Hint                            : XviD\nDuration                                 : 1h 41mn\nBit rate                                 : 1 459 Kbps\nWidth                                    : 640 pixels\nHeight                                   : 272 pixels\nDisplay aspect ratio                     : 2.35:1\nFrame rate                               : 25.000 fps\nColor space                              : YUV\nChroma subsampling                       : 4:2:0\nBit depth                                : 8 bits\nScan type                                : Progressive\nCompression mode                         : Lossy\nBits/(PixelFrame)                       : 0.335\nStream size                              : 1.04 GiB (76\nWriting library                          : XviD 64\n\nAudio\nID                                       : 1\nFormat                                   : AC-3\nFormat/Info                              : Audio Coding 3\nMode extension                           : CM (complete main\nCodec ID                                 : 2000\nDuration                                 : 1h 41mn\nBit rate mode                            : Constant\nBit rate                                 : 448 Kbps\nChannel(s)                               : 6 channels\nChannel positions                        : Front: L C R, Side: L R, LFE\nSampling rate                            : 48.0 KHz\nBit depth                                : 16 bits\nCompression mode                         : Lossy\nStream size                              : 326 MiB (23\nAlignment                                : Split accross interleaves\nInterleave, duration                     : 40 ms (1.00 video frame\nInterleave, preload duration             : 500 ms\n\nRelease notes\nenjoy\n\nGreetz from Team FiCO:\n\nBLooDWeiSeR,CULTXviD,SiCK,DoNE,LAP,TH30R1STS\n\nWinBeta, DvF, WASTE, BERC, KALEVALA, Jiggly\n\nyou know where to find us...\n\nNFO By: CoaXCable/CoolPHat #CPH","torrent":{"xt":"urn:btih:f4bb2f962e7eb762a61ec1a1bf7ef4374baba9ec","amp;dn":"Life.For.Sale.2011.DVDRip.XviD-FiCO","amp;tr":["udp%3A%2F%2Ftracker.openbittorrent.com%3A80","udp%3A%2F%2Fopen.demonii.com%3A1337","udp%3A%2F%2Ftracker.coppersurfer.tk%3A6969","udp%3A%2F%2Fexodus.desync.com%3A6969"],"infoHash":"f4bb2f962e7eb762a61ec1a1bf7ef4374baba9ec","infoHashBuffer":{"type":"Buffer","data":[244,187,47,150,46,126,183,98,166,30,193,161,191,126,244,55,75,171,169,236]},"announce":[],"urlList":[]}}